<mxfile host="app.diagrams.net" modified="2022-02-25T01:05:21.846Z" agent="5.0 (Windows NT 10.0; Win64; x64) AppleWebKit/537.36 (KHTML, like Gecko) Chrome/98.0.4758.102 Safari/537.36" etag="2sI8PShS2qn9tVFWRwJ0" version="16.6.4" type="github">
  <diagram id="rs5LrS3yjigf87WkTgGt" name="Page-1">
    <mxGraphModel dx="2332" dy="578" grid="1" gridSize="10" guides="1" tooltips="1" connect="1" arrows="1" fold="1" page="1" pageScale="1" pageWidth="1200" pageHeight="1600" math="0" shadow="0">
      <root>
        <mxCell id="0" />
        <mxCell id="1" parent="0" />
        <mxCell id="gYe92Rgtv7boX88liuPo-2" value="&lt;b&gt;&lt;font style=&quot;font-size: 17px&quot;&gt;Meta-RL&lt;/font&gt;&lt;/b&gt;" style="rounded=1;whiteSpace=wrap;html=1;fillColor=#B2C9AB;strokeColor=#788AA3;fontColor=#46495D;" parent="1" vertex="1">
          <mxGeometry x="-312.5" y="10" width="102.5" height="30" as="geometry" />
        </mxCell>
        <mxCell id="gYe92Rgtv7boX88liuPo-4" value="&lt;b&gt;Online&lt;/b&gt;" style="rounded=1;whiteSpace=wrap;html=1;fillColor=#B2C9AB;strokeColor=#788AA3;fontColor=#46495D;" parent="1" vertex="1">
          <mxGeometry x="130" y="60" width="100" height="30" as="geometry" />
        </mxCell>
        <mxCell id="gYe92Rgtv7boX88liuPo-8" value="" style="endArrow=none;html=1;rounded=0;entryX=0.432;entryY=-0.027;entryDx=0;entryDy=0;entryPerimeter=0;exitX=0.5;exitY=1;exitDx=0;exitDy=0;strokeColor=#788AA3;fontColor=#46495D;" parent="1" source="gYe92Rgtv7boX88liuPo-2" target="gYe92Rgtv7boX88liuPo-4" edge="1">
          <mxGeometry width="50" height="50" relative="1" as="geometry">
            <mxPoint x="-130" y="250" as="sourcePoint" />
            <mxPoint x="110" y="400" as="targetPoint" />
          </mxGeometry>
        </mxCell>
        <mxCell id="gYe92Rgtv7boX88liuPo-9" value="" style="endArrow=none;html=1;rounded=0;exitX=0.5;exitY=1;exitDx=0;exitDy=0;entryX=0.5;entryY=0;entryDx=0;entryDy=0;strokeColor=#788AA3;fontColor=#46495D;" parent="1" source="gYe92Rgtv7boX88liuPo-2" target="gYe92Rgtv7boX88liuPo-434" edge="1">
          <mxGeometry width="50" height="50" relative="1" as="geometry">
            <mxPoint x="60" y="450" as="sourcePoint" />
            <mxPoint x="-180" y="250" as="targetPoint" />
          </mxGeometry>
        </mxCell>
        <mxCell id="gYe92Rgtv7boX88liuPo-12" value="&lt;b&gt;Model-Based&lt;/b&gt;" style="rounded=1;whiteSpace=wrap;html=1;fillColor=#B2C9AB;strokeColor=#788AA3;fontColor=#46495D;" parent="1" vertex="1">
          <mxGeometry x="-1140" y="135" width="120" height="30" as="geometry" />
        </mxCell>
        <mxCell id="gYe92Rgtv7boX88liuPo-434" value="&lt;b&gt;Offline&lt;/b&gt;" style="rounded=1;whiteSpace=wrap;html=1;fillColor=#B2C9AB;strokeColor=#788AA3;fontColor=#46495D;" parent="1" vertex="1">
          <mxGeometry x="-810" y="50" width="100" height="30" as="geometry" />
        </mxCell>
        <mxCell id="gYe92Rgtv7boX88liuPo-440" value="" style="endArrow=none;html=1;rounded=0;exitX=0.5;exitY=1;exitDx=0;exitDy=0;entryX=0.5;entryY=0;entryDx=0;entryDy=0;strokeColor=#788AA3;fontColor=#46495D;" parent="1" source="gYe92Rgtv7boX88liuPo-434" target="gYe92Rgtv7boX88liuPo-12" edge="1">
          <mxGeometry width="50" height="50" relative="1" as="geometry">
            <mxPoint x="-20" y="420" as="sourcePoint" />
            <mxPoint x="30" y="370" as="targetPoint" />
          </mxGeometry>
        </mxCell>
        <mxCell id="gYe92Rgtv7boX88liuPo-441" value="&lt;b&gt;Model-Free&lt;/b&gt;" style="rounded=1;whiteSpace=wrap;html=1;fillColor=#B2C9AB;strokeColor=#788AA3;fontColor=#46495D;" parent="1" vertex="1">
          <mxGeometry x="-915" y="135" width="130" height="30" as="geometry" />
        </mxCell>
        <mxCell id="gYe92Rgtv7boX88liuPo-443" value="&lt;b&gt;Comparison&lt;/b&gt;" style="rounded=1;whiteSpace=wrap;html=1;fillColor=#B2C9AB;strokeColor=#788AA3;fontColor=#46495D;" parent="1" vertex="1">
          <mxGeometry x="-457.5" y="135" width="105" height="30" as="geometry" />
        </mxCell>
        <mxCell id="gYe92Rgtv7boX88liuPo-445" value="" style="endArrow=none;html=1;rounded=0;exitX=0.5;exitY=1;exitDx=0;exitDy=0;entryX=0.5;entryY=0;entryDx=0;entryDy=0;strokeColor=#788AA3;fontColor=#46495D;" parent="1" source="gYe92Rgtv7boX88liuPo-434" target="gYe92Rgtv7boX88liuPo-441" edge="1">
          <mxGeometry width="50" height="50" relative="1" as="geometry">
            <mxPoint x="-20" y="320" as="sourcePoint" />
            <mxPoint x="30" y="270" as="targetPoint" />
          </mxGeometry>
        </mxCell>
        <mxCell id="gYe92Rgtv7boX88liuPo-448" value="" style="endArrow=none;html=1;rounded=0;exitX=0.5;exitY=1;exitDx=0;exitDy=0;entryX=0.5;entryY=0;entryDx=0;entryDy=0;startArrow=none;strokeColor=#788AA3;fontColor=#46495D;" parent="1" source="gYe92Rgtv7boX88liuPo-434" target="gYe92Rgtv7boX88liuPo-443" edge="1">
          <mxGeometry width="50" height="50" relative="1" as="geometry">
            <mxPoint x="-20" y="320" as="sourcePoint" />
            <mxPoint x="30" y="270" as="targetPoint" />
          </mxGeometry>
        </mxCell>
        <mxCell id="gYe92Rgtv7boX88liuPo-452" value="&lt;b&gt;Model-Based&lt;/b&gt;" style="rounded=1;whiteSpace=wrap;html=1;fillColor=#B2C9AB;strokeColor=#788AA3;fontColor=#46495D;" parent="1" vertex="1">
          <mxGeometry x="-222.5" y="135" width="105" height="30" as="geometry" />
        </mxCell>
        <mxCell id="gYe92Rgtv7boX88liuPo-453" value="&lt;b&gt;Model-Free&lt;/b&gt;" style="rounded=1;whiteSpace=wrap;html=1;fillColor=#B2C9AB;strokeColor=#788AA3;fontColor=#46495D;" parent="1" vertex="1">
          <mxGeometry x="20" y="135" width="90" height="30" as="geometry" />
        </mxCell>
        <mxCell id="gYe92Rgtv7boX88liuPo-454" value="&lt;b&gt;Hybrid&lt;/b&gt;" style="rounded=1;whiteSpace=wrap;html=1;fillColor=#B2C9AB;strokeColor=#788AA3;fontColor=#46495D;" parent="1" vertex="1">
          <mxGeometry x="265" y="135" width="70" height="30" as="geometry" />
        </mxCell>
        <mxCell id="gYe92Rgtv7boX88liuPo-455" value="&lt;b&gt;Comparison&lt;/b&gt;" style="rounded=1;whiteSpace=wrap;html=1;fillColor=#B2C9AB;strokeColor=#788AA3;fontColor=#46495D;" parent="1" vertex="1">
          <mxGeometry x="495.5" y="140" width="90" height="30" as="geometry" />
        </mxCell>
        <mxCell id="gYe92Rgtv7boX88liuPo-457" value="" style="endArrow=none;html=1;rounded=0;entryX=0.5;entryY=1;entryDx=0;entryDy=0;exitX=0.5;exitY=0;exitDx=0;exitDy=0;strokeColor=#788AA3;fontColor=#46495D;" parent="1" source="gYe92Rgtv7boX88liuPo-452" target="gYe92Rgtv7boX88liuPo-4" edge="1">
          <mxGeometry width="50" height="50" relative="1" as="geometry">
            <mxPoint x="-20" y="220" as="sourcePoint" />
            <mxPoint x="30" y="170" as="targetPoint" />
          </mxGeometry>
        </mxCell>
        <mxCell id="gYe92Rgtv7boX88liuPo-458" value="" style="endArrow=none;html=1;rounded=0;exitX=0.5;exitY=0;exitDx=0;exitDy=0;entryX=0.5;entryY=1;entryDx=0;entryDy=0;strokeColor=#788AA3;fontColor=#46495D;" parent="1" source="gYe92Rgtv7boX88liuPo-453" target="gYe92Rgtv7boX88liuPo-4" edge="1">
          <mxGeometry width="50" height="50" relative="1" as="geometry">
            <mxPoint x="-20" y="220" as="sourcePoint" />
            <mxPoint x="40" y="180" as="targetPoint" />
          </mxGeometry>
        </mxCell>
        <mxCell id="gYe92Rgtv7boX88liuPo-459" value="" style="endArrow=none;html=1;rounded=0;exitX=0.5;exitY=0;exitDx=0;exitDy=0;entryX=0.5;entryY=1;entryDx=0;entryDy=0;strokeColor=#788AA3;fontColor=#46495D;" parent="1" source="gYe92Rgtv7boX88liuPo-454" target="gYe92Rgtv7boX88liuPo-4" edge="1">
          <mxGeometry width="50" height="50" relative="1" as="geometry">
            <mxPoint x="-20" y="220" as="sourcePoint" />
            <mxPoint x="40" y="180" as="targetPoint" />
          </mxGeometry>
        </mxCell>
        <mxCell id="gYe92Rgtv7boX88liuPo-460" value="" style="endArrow=none;html=1;rounded=0;exitX=0.5;exitY=0;exitDx=0;exitDy=0;strokeColor=#788AA3;fontColor=#46495D;entryX=0.5;entryY=1;entryDx=0;entryDy=0;" parent="1" source="gYe92Rgtv7boX88liuPo-455" target="gYe92Rgtv7boX88liuPo-4" edge="1">
          <mxGeometry width="50" height="50" relative="1" as="geometry">
            <mxPoint x="-20" y="220" as="sourcePoint" />
            <mxPoint x="40" y="180" as="targetPoint" />
          </mxGeometry>
        </mxCell>
        <mxCell id="gYe92Rgtv7boX88liuPo-467" value="" style="endArrow=none;html=1;rounded=0;exitX=0.5;exitY=1;exitDx=0;exitDy=0;entryX=0.5;entryY=0;entryDx=0;entryDy=0;strokeColor=#788AA3;fontColor=#46495D;" parent="1" source="gYe92Rgtv7boX88liuPo-434" target="gYe92Rgtv7boX88liuPo-605" edge="1">
          <mxGeometry width="50" height="50" relative="1" as="geometry">
            <mxPoint x="-270" y="130" as="sourcePoint" />
            <mxPoint x="-457.5" y="129.9999999999999" as="targetPoint" />
          </mxGeometry>
        </mxCell>
        <mxCell id="gYe92Rgtv7boX88liuPo-585" value="" style="endArrow=none;html=1;rounded=1;sketch=0;fontColor=#46495D;strokeColor=#788AA3;fillColor=#B2C9AB;curved=0;exitX=0.5;exitY=1;exitDx=0;exitDy=0;entryX=0.5;entryY=0;entryDx=0;entryDy=0;" parent="1" source="gYe92Rgtv7boX88liuPo-12" target="gYe92Rgtv7boX88liuPo-595" edge="1">
          <mxGeometry width="50" height="50" relative="1" as="geometry">
            <mxPoint x="-390" y="400" as="sourcePoint" />
            <mxPoint x="-900" y="270" as="targetPoint" />
          </mxGeometry>
        </mxCell>
        <mxCell id="gYe92Rgtv7boX88liuPo-595" value="Meta-RL Offline Model-Based" style="swimlane;rounded=0;labelBackgroundColor=none;sketch=0;fontColor=#46495D;strokeColor=#788AA3;fillColor=#B2C9AB;gradientColor=none;" parent="1" vertex="1">
          <mxGeometry x="-1191" y="210" width="220" height="1350" as="geometry" />
        </mxCell>
        <mxCell id="QpMWJNPEq7iUGMKIBiDv-1" value="&lt;h4&gt;Model-based Offline Meta-Reinforcement Learning with Regularization&amp;nbsp;&lt;/h4&gt;&lt;h4&gt;(Sen Lin, et.al : ICLR 2022)&lt;/h4&gt;&lt;p&gt;&lt;b&gt;Summary&lt;/b&gt;:&lt;/p&gt;" style="text;html=1;strokeColor=#82b366;fillColor=#d5e8d4;spacing=5;spacingTop=-20;whiteSpace=wrap;overflow=hidden;rounded=0;labelBackgroundColor=none;sketch=0;" vertex="1" parent="gYe92Rgtv7boX88liuPo-595">
          <mxGeometry x="10" y="40" width="200" height="170" as="geometry" />
        </mxCell>
        <mxCell id="QpMWJNPEq7iUGMKIBiDv-2" value="&lt;h1&gt;&lt;br&gt;&lt;/h1&gt;" style="text;html=1;strokeColor=none;fillColor=none;spacing=5;spacingTop=-20;whiteSpace=wrap;overflow=hidden;rounded=0;labelBackgroundColor=none;sketch=0;fontSize=17;fontColor=#46495D;" vertex="1" parent="gYe92Rgtv7boX88liuPo-595">
          <mxGeometry x="15" y="230" width="190" height="120" as="geometry" />
        </mxCell>
        <mxCell id="QpMWJNPEq7iUGMKIBiDv-5" value="&lt;h4&gt;The Reflective Explorer: Online Meta-Exploration from Offline Data in Realistic Robotic Tasks&lt;/h4&gt;&lt;h4&gt;(Chelsea Finn, et.al : NIPS 2021)&lt;/h4&gt;&lt;p&gt;&lt;b&gt;Summary&lt;/b&gt;:&lt;/p&gt;" style="text;html=1;strokeColor=#82b366;fillColor=#d5e8d4;spacing=5;spacingTop=-20;whiteSpace=wrap;overflow=hidden;rounded=0;labelBackgroundColor=none;sketch=0;" vertex="1" parent="gYe92Rgtv7boX88liuPo-595">
          <mxGeometry x="10" y="250" width="200" height="170" as="geometry" />
        </mxCell>
        <mxCell id="gYe92Rgtv7boX88liuPo-596" value="Meta-RL Offline Model-Free" style="swimlane;rounded=0;labelBackgroundColor=none;sketch=0;fontColor=#46495D;strokeColor=#788AA3;fillColor=#B2C9AB;gradientColor=none;" parent="1" vertex="1">
          <mxGeometry x="-960" y="210" width="220" height="1350" as="geometry" />
        </mxCell>
        <mxCell id="QpMWJNPEq7iUGMKIBiDv-6" value="&lt;h4&gt;Offline Meta-RL with Online Self-Supervision&amp;nbsp;&lt;/h4&gt;&lt;h4&gt;(Sergey Levine, et.al : ICLR 2022 - Reject )&lt;/h4&gt;&lt;p&gt;&lt;b&gt;Summary&lt;/b&gt;:&lt;/p&gt;" style="text;html=1;strokeColor=#82b366;fillColor=#d5e8d4;spacing=5;spacingTop=-20;whiteSpace=wrap;overflow=hidden;rounded=0;labelBackgroundColor=none;sketch=0;" vertex="1" parent="gYe92Rgtv7boX88liuPo-596">
          <mxGeometry x="5" y="41" width="205" height="170" as="geometry" />
        </mxCell>
        <mxCell id="QpMWJNPEq7iUGMKIBiDv-7" value="&lt;h4&gt;Skill-based Meta-RL&amp;nbsp;&lt;/h4&gt;&lt;h4&gt;(Taewook Nam, et.al : NIPS 2021 )&lt;/h4&gt;&lt;p&gt;&lt;b&gt;Summary&lt;/b&gt;:&lt;/p&gt;" style="text;html=1;strokeColor=#82b366;fillColor=#d5e8d4;spacing=5;spacingTop=-20;whiteSpace=wrap;overflow=hidden;rounded=0;labelBackgroundColor=none;sketch=0;" vertex="1" parent="gYe92Rgtv7boX88liuPo-596">
          <mxGeometry x="5" y="250" width="205" height="170" as="geometry" />
        </mxCell>
        <mxCell id="QpMWJNPEq7iUGMKIBiDv-8" value="&lt;h4&gt;Offline Meta-Learning of Exploration&amp;nbsp;&lt;/h4&gt;&lt;h4&gt;(Ron Dorfman, et.al : Learning to Learn 2021 )&lt;/h4&gt;&lt;p&gt;&lt;b&gt;Summary&lt;/b&gt;:&lt;/p&gt;" style="text;html=1;strokeColor=#82b366;fillColor=#d5e8d4;spacing=5;spacingTop=-20;whiteSpace=wrap;overflow=hidden;rounded=0;labelBackgroundColor=none;sketch=0;" vertex="1" parent="gYe92Rgtv7boX88liuPo-596">
          <mxGeometry x="6" y="440" width="203" height="170" as="geometry" />
        </mxCell>
        <mxCell id="QpMWJNPEq7iUGMKIBiDv-9" value="&lt;h4&gt;Offline Meta-RL with Advantage Weighting&amp;nbsp;&lt;/h4&gt;&lt;h4&gt;(Sergey Levine, Chelsea Finn et.al : ICLR 2021 Reject )&lt;/h4&gt;&lt;p&gt;&lt;b&gt;Summary&lt;/b&gt;:&lt;/p&gt;" style="text;html=1;strokeColor=#82b366;fillColor=#d5e8d4;spacing=5;spacingTop=-20;whiteSpace=wrap;overflow=hidden;rounded=0;labelBackgroundColor=none;sketch=0;" vertex="1" parent="gYe92Rgtv7boX88liuPo-596">
          <mxGeometry x="6" y="630" width="203" height="170" as="geometry" />
        </mxCell>
        <mxCell id="gYe92Rgtv7boX88liuPo-597" value="Meta-RL Offline Hybrid" style="swimlane;rounded=0;labelBackgroundColor=none;sketch=0;fontColor=#46495D;strokeColor=#788AA3;fillColor=#B2C9AB;gradientColor=none;" parent="1" vertex="1">
          <mxGeometry x="-733" y="210" width="213" height="1350" as="geometry" />
        </mxCell>
        <mxCell id="gYe92Rgtv7boX88liuPo-598" value="Meta-RL Offline Comparison" style="swimlane;rounded=0;labelBackgroundColor=none;sketch=0;fontColor=#46495D;strokeColor=#788AA3;fillColor=#B2C9AB;gradientColor=none;" parent="1" vertex="1">
          <mxGeometry x="-510" y="210" width="210" height="1350" as="geometry" />
        </mxCell>
        <mxCell id="gYe92Rgtv7boX88liuPo-603" value="" style="endArrow=none;html=1;rounded=1;sketch=0;fontColor=#46495D;strokeColor=#788AA3;fillColor=#B2C9AB;curved=0;entryX=0.5;entryY=1;entryDx=0;entryDy=0;exitX=0.5;exitY=0;exitDx=0;exitDy=0;" parent="1" source="gYe92Rgtv7boX88liuPo-596" target="gYe92Rgtv7boX88liuPo-441" edge="1">
          <mxGeometry width="50" height="50" relative="1" as="geometry">
            <mxPoint x="-800" y="220" as="sourcePoint" />
            <mxPoint x="-750" y="170" as="targetPoint" />
          </mxGeometry>
        </mxCell>
        <mxCell id="gYe92Rgtv7boX88liuPo-604" value="" style="endArrow=none;html=1;rounded=1;sketch=0;fontColor=#46495D;strokeColor=#788AA3;fillColor=#B2C9AB;curved=0;entryX=0.5;entryY=1;entryDx=0;entryDy=0;exitX=0.5;exitY=0;exitDx=0;exitDy=0;" parent="1" source="gYe92Rgtv7boX88liuPo-597" target="gYe92Rgtv7boX88liuPo-605" edge="1">
          <mxGeometry width="50" height="50" relative="1" as="geometry">
            <mxPoint x="-510" y="340" as="sourcePoint" />
            <mxPoint x="-457.5" y="159.9999999999999" as="targetPoint" />
          </mxGeometry>
        </mxCell>
        <mxCell id="gYe92Rgtv7boX88liuPo-605" value="&lt;span&gt;&lt;b&gt;Hybrid&lt;/b&gt;&lt;/span&gt;" style="rounded=1;whiteSpace=wrap;html=1;labelBackgroundColor=none;sketch=0;fontColor=#46495D;strokeColor=#788AA3;fillColor=#B2C9AB;gradientColor=none;" parent="1" vertex="1">
          <mxGeometry x="-656.5" y="135" width="60" height="30" as="geometry" />
        </mxCell>
        <mxCell id="gYe92Rgtv7boX88liuPo-607" value="" style="endArrow=none;html=1;rounded=1;sketch=0;fontColor=#46495D;strokeColor=#788AA3;fillColor=#B2C9AB;curved=0;entryX=0.5;entryY=1;entryDx=0;entryDy=0;exitX=0.5;exitY=0;exitDx=0;exitDy=0;" parent="1" source="gYe92Rgtv7boX88liuPo-598" target="gYe92Rgtv7boX88liuPo-443" edge="1">
          <mxGeometry width="50" height="50" relative="1" as="geometry">
            <mxPoint x="-500" y="330" as="sourcePoint" />
            <mxPoint x="-450" y="280" as="targetPoint" />
          </mxGeometry>
        </mxCell>
        <mxCell id="gYe92Rgtv7boX88liuPo-610" value="Meta-RL Online Model-Based" style="swimlane;rounded=0;labelBackgroundColor=none;sketch=0;fontColor=#46495D;strokeColor=#788AA3;fillColor=#B2C9AB;gradientColor=none;startSize=23;" parent="1" vertex="1">
          <mxGeometry x="-280" y="210" width="220" height="1350" as="geometry" />
        </mxCell>
        <mxCell id="QpMWJNPEq7iUGMKIBiDv-14" value="&lt;h4&gt;Accelerating Online Reinforcement Learning via Model-based Learning&lt;/h4&gt;&lt;h4&gt;(Sergey Levine, et.al : Learning to Learn 2021 )&lt;/h4&gt;&lt;p&gt;&lt;b&gt;Summary&lt;/b&gt;:&lt;/p&gt;" style="text;html=1;strokeColor=#82b366;fillColor=#d5e8d4;spacing=5;spacingTop=-20;whiteSpace=wrap;overflow=hidden;rounded=0;labelBackgroundColor=none;sketch=0;" vertex="1" parent="gYe92Rgtv7boX88liuPo-610">
          <mxGeometry x="7.5" y="41" width="205" height="170" as="geometry" />
        </mxCell>
        <mxCell id="gYe92Rgtv7boX88liuPo-611" value="Meta-RL Online Model-Free" style="swimlane;rounded=0;labelBackgroundColor=none;sketch=0;fontColor=#46495D;strokeColor=#788AA3;fillColor=#B2C9AB;gradientColor=none;" parent="1" vertex="1">
          <mxGeometry x="-50" y="210" width="230" height="1350" as="geometry" />
        </mxCell>
        <mxCell id="gYe92Rgtv7boX88liuPo-612" value="Meta-RL Online Hybrid" style="swimlane;rounded=0;labelBackgroundColor=none;sketch=0;fontColor=#46495D;strokeColor=#788AA3;fillColor=#B2C9AB;gradientColor=none;startSize=23;" parent="1" vertex="1">
          <mxGeometry x="190" y="210" width="220" height="1350" as="geometry" />
        </mxCell>
        <mxCell id="gYe92Rgtv7boX88liuPo-613" value="Meta-RL Online Comparison" style="swimlane;rounded=0;labelBackgroundColor=none;sketch=0;fontColor=#46495D;strokeColor=#788AA3;fillColor=#B2C9AB;gradientColor=none;" parent="1" vertex="1">
          <mxGeometry x="431" y="210" width="219" height="1350" as="geometry" />
        </mxCell>
        <mxCell id="gYe92Rgtv7boX88liuPo-617" value="" style="endArrow=none;html=1;rounded=1;sketch=0;fontColor=#46495D;strokeColor=#788AA3;fillColor=#B2C9AB;curved=0;exitX=0.5;exitY=1;exitDx=0;exitDy=0;entryX=0.5;entryY=0;entryDx=0;entryDy=0;" parent="1" source="gYe92Rgtv7boX88liuPo-452" target="gYe92Rgtv7boX88liuPo-610" edge="1">
          <mxGeometry width="50" height="50" relative="1" as="geometry">
            <mxPoint x="140" y="180" as="sourcePoint" />
            <mxPoint x="190" y="130" as="targetPoint" />
          </mxGeometry>
        </mxCell>
        <mxCell id="gYe92Rgtv7boX88liuPo-618" value="" style="endArrow=none;html=1;rounded=1;sketch=0;fontColor=#46495D;strokeColor=#788AA3;fillColor=#B2C9AB;curved=0;entryX=0.5;entryY=1;entryDx=0;entryDy=0;exitX=0.5;exitY=0;exitDx=0;exitDy=0;" parent="1" source="gYe92Rgtv7boX88liuPo-611" target="gYe92Rgtv7boX88liuPo-453" edge="1">
          <mxGeometry width="50" height="50" relative="1" as="geometry">
            <mxPoint x="140" y="180" as="sourcePoint" />
            <mxPoint x="190" y="130" as="targetPoint" />
          </mxGeometry>
        </mxCell>
        <mxCell id="gYe92Rgtv7boX88liuPo-619" value="" style="endArrow=none;html=1;rounded=1;sketch=0;fontColor=#46495D;strokeColor=#788AA3;fillColor=#B2C9AB;curved=0;entryX=0.5;entryY=1;entryDx=0;entryDy=0;exitX=0.5;exitY=0;exitDx=0;exitDy=0;" parent="1" source="gYe92Rgtv7boX88liuPo-612" target="gYe92Rgtv7boX88liuPo-454" edge="1">
          <mxGeometry width="50" height="50" relative="1" as="geometry">
            <mxPoint x="140" y="180" as="sourcePoint" />
            <mxPoint x="190" y="130" as="targetPoint" />
          </mxGeometry>
        </mxCell>
        <mxCell id="gYe92Rgtv7boX88liuPo-620" value="" style="endArrow=none;html=1;rounded=1;sketch=0;fontColor=#46495D;strokeColor=#788AA3;fillColor=#B2C9AB;curved=0;entryX=0.5;entryY=1;entryDx=0;entryDy=0;exitX=0.5;exitY=0;exitDx=0;exitDy=0;" parent="1" source="gYe92Rgtv7boX88liuPo-613" target="gYe92Rgtv7boX88liuPo-455" edge="1">
          <mxGeometry width="50" height="50" relative="1" as="geometry">
            <mxPoint x="140" y="180" as="sourcePoint" />
            <mxPoint x="190" y="130" as="targetPoint" />
          </mxGeometry>
        </mxCell>
        <mxCell id="gYe92Rgtv7boX88liuPo-622" value="&lt;b&gt;RL&lt;/b&gt;" style="rounded=1;whiteSpace=wrap;html=1;fillColor=#B2C9AB;strokeColor=#788AA3;fontColor=#46495D;" parent="1" vertex="1">
          <mxGeometry x="1727.5" y="10" width="70" height="30" as="geometry" />
        </mxCell>
        <mxCell id="gYe92Rgtv7boX88liuPo-623" value="Online" style="rounded=1;whiteSpace=wrap;html=1;fillColor=#B2C9AB;strokeColor=#788AA3;fontColor=#46495D;" parent="1" vertex="1">
          <mxGeometry x="2160" y="60" width="100" height="30" as="geometry" />
        </mxCell>
        <mxCell id="gYe92Rgtv7boX88liuPo-624" value="" style="endArrow=none;html=1;rounded=0;entryX=0.432;entryY=-0.027;entryDx=0;entryDy=0;entryPerimeter=0;exitX=0.5;exitY=1;exitDx=0;exitDy=0;strokeColor=#788AA3;fontColor=#46495D;" parent="1" source="gYe92Rgtv7boX88liuPo-622" target="gYe92Rgtv7boX88liuPo-623" edge="1">
          <mxGeometry width="50" height="50" relative="1" as="geometry">
            <mxPoint x="1910" y="250" as="sourcePoint" />
            <mxPoint x="2150" y="400" as="targetPoint" />
          </mxGeometry>
        </mxCell>
        <mxCell id="gYe92Rgtv7boX88liuPo-625" value="" style="endArrow=none;html=1;rounded=0;entryX=0.5;entryY=0;entryDx=0;entryDy=0;strokeColor=#788AA3;fontColor=#46495D;" parent="1" target="gYe92Rgtv7boX88liuPo-627" edge="1">
          <mxGeometry width="50" height="50" relative="1" as="geometry">
            <mxPoint x="1770" y="40" as="sourcePoint" />
            <mxPoint x="1860" y="250" as="targetPoint" />
          </mxGeometry>
        </mxCell>
        <mxCell id="gYe92Rgtv7boX88liuPo-626" value="Model-Based" style="rounded=1;whiteSpace=wrap;html=1;fillColor=#B2C9AB;strokeColor=#788AA3;fontColor=#46495D;" parent="1" vertex="1">
          <mxGeometry x="960" y="135" width="120" height="30" as="geometry" />
        </mxCell>
        <mxCell id="gYe92Rgtv7boX88liuPo-627" value="Offline" style="rounded=1;whiteSpace=wrap;html=1;fillColor=#B2C9AB;strokeColor=#788AA3;fontColor=#46495D;" parent="1" vertex="1">
          <mxGeometry x="1310" y="60" width="100" height="30" as="geometry" />
        </mxCell>
        <mxCell id="gYe92Rgtv7boX88liuPo-628" value="" style="endArrow=none;html=1;rounded=0;exitX=0.5;exitY=1;exitDx=0;exitDy=0;entryX=0.5;entryY=0;entryDx=0;entryDy=0;strokeColor=#788AA3;fontColor=#46495D;" parent="1" source="gYe92Rgtv7boX88liuPo-627" target="gYe92Rgtv7boX88liuPo-626" edge="1">
          <mxGeometry width="50" height="50" relative="1" as="geometry">
            <mxPoint x="2020" y="420" as="sourcePoint" />
            <mxPoint x="2070" y="370" as="targetPoint" />
          </mxGeometry>
        </mxCell>
        <mxCell id="gYe92Rgtv7boX88liuPo-629" value="Model-Free" style="rounded=1;whiteSpace=wrap;html=1;fillColor=#B2C9AB;strokeColor=#788AA3;fontColor=#46495D;" parent="1" vertex="1">
          <mxGeometry x="1150" y="135" width="130" height="30" as="geometry" />
        </mxCell>
        <mxCell id="gYe92Rgtv7boX88liuPo-630" value="Compare" style="rounded=1;whiteSpace=wrap;html=1;fillColor=#B2C9AB;strokeColor=#788AA3;fontColor=#46495D;" parent="1" vertex="1">
          <mxGeometry x="1580" y="135" width="60" height="30" as="geometry" />
        </mxCell>
        <mxCell id="gYe92Rgtv7boX88liuPo-631" value="" style="endArrow=none;html=1;rounded=0;exitX=0.5;exitY=1;exitDx=0;exitDy=0;entryX=0.5;entryY=0;entryDx=0;entryDy=0;strokeColor=#788AA3;fontColor=#46495D;" parent="1" source="gYe92Rgtv7boX88liuPo-627" target="gYe92Rgtv7boX88liuPo-629" edge="1">
          <mxGeometry width="50" height="50" relative="1" as="geometry">
            <mxPoint x="2020" y="320" as="sourcePoint" />
            <mxPoint x="2070" y="270" as="targetPoint" />
          </mxGeometry>
        </mxCell>
        <mxCell id="gYe92Rgtv7boX88liuPo-632" value="" style="endArrow=none;html=1;rounded=0;exitX=0.5;exitY=1;exitDx=0;exitDy=0;entryX=0.5;entryY=0;entryDx=0;entryDy=0;startArrow=none;strokeColor=#788AA3;fontColor=#46495D;" parent="1" source="gYe92Rgtv7boX88liuPo-627" target="gYe92Rgtv7boX88liuPo-630" edge="1">
          <mxGeometry width="50" height="50" relative="1" as="geometry">
            <mxPoint x="2020" y="320" as="sourcePoint" />
            <mxPoint x="2070" y="270" as="targetPoint" />
          </mxGeometry>
        </mxCell>
        <mxCell id="gYe92Rgtv7boX88liuPo-633" value="Model-Based" style="rounded=1;whiteSpace=wrap;html=1;fillColor=#B2C9AB;strokeColor=#788AA3;fontColor=#46495D;" parent="1" vertex="1">
          <mxGeometry x="1870" y="135" width="105" height="30" as="geometry" />
        </mxCell>
        <mxCell id="gYe92Rgtv7boX88liuPo-634" value="Model-Free" style="rounded=1;whiteSpace=wrap;html=1;fillColor=#B2C9AB;strokeColor=#788AA3;fontColor=#46495D;" parent="1" vertex="1">
          <mxGeometry x="2070" y="135" width="90" height="30" as="geometry" />
        </mxCell>
        <mxCell id="gYe92Rgtv7boX88liuPo-635" value="Hybrid" style="rounded=1;whiteSpace=wrap;html=1;fillColor=#B2C9AB;strokeColor=#788AA3;fontColor=#46495D;" parent="1" vertex="1">
          <mxGeometry x="2250" y="140" width="70" height="30" as="geometry" />
        </mxCell>
        <mxCell id="gYe92Rgtv7boX88liuPo-636" value="Compare" style="rounded=1;whiteSpace=wrap;html=1;fillColor=#B2C9AB;strokeColor=#788AA3;fontColor=#46495D;" parent="1" vertex="1">
          <mxGeometry x="2470" y="140" width="60" height="30" as="geometry" />
        </mxCell>
        <mxCell id="gYe92Rgtv7boX88liuPo-637" value="" style="endArrow=none;html=1;rounded=0;entryX=0.5;entryY=1;entryDx=0;entryDy=0;exitX=0.5;exitY=0;exitDx=0;exitDy=0;strokeColor=#788AA3;fontColor=#46495D;" parent="1" source="gYe92Rgtv7boX88liuPo-633" target="gYe92Rgtv7boX88liuPo-623" edge="1">
          <mxGeometry width="50" height="50" relative="1" as="geometry">
            <mxPoint x="2020" y="220" as="sourcePoint" />
            <mxPoint x="2070" y="170" as="targetPoint" />
          </mxGeometry>
        </mxCell>
        <mxCell id="gYe92Rgtv7boX88liuPo-638" value="" style="endArrow=none;html=1;rounded=0;exitX=0.5;exitY=0;exitDx=0;exitDy=0;entryX=0.5;entryY=1;entryDx=0;entryDy=0;strokeColor=#788AA3;fontColor=#46495D;" parent="1" source="gYe92Rgtv7boX88liuPo-634" target="gYe92Rgtv7boX88liuPo-623" edge="1">
          <mxGeometry width="50" height="50" relative="1" as="geometry">
            <mxPoint x="2020" y="220" as="sourcePoint" />
            <mxPoint x="2080" y="180" as="targetPoint" />
          </mxGeometry>
        </mxCell>
        <mxCell id="gYe92Rgtv7boX88liuPo-639" value="" style="endArrow=none;html=1;rounded=0;exitX=0.5;exitY=0;exitDx=0;exitDy=0;entryX=0.5;entryY=1;entryDx=0;entryDy=0;strokeColor=#788AA3;fontColor=#46495D;" parent="1" source="gYe92Rgtv7boX88liuPo-635" target="gYe92Rgtv7boX88liuPo-623" edge="1">
          <mxGeometry width="50" height="50" relative="1" as="geometry">
            <mxPoint x="2020" y="220" as="sourcePoint" />
            <mxPoint x="2080" y="180" as="targetPoint" />
          </mxGeometry>
        </mxCell>
        <mxCell id="gYe92Rgtv7boX88liuPo-640" value="" style="endArrow=none;html=1;rounded=0;exitX=0.5;exitY=0;exitDx=0;exitDy=0;strokeColor=#788AA3;fontColor=#46495D;entryX=0.5;entryY=1;entryDx=0;entryDy=0;" parent="1" source="gYe92Rgtv7boX88liuPo-636" target="gYe92Rgtv7boX88liuPo-623" edge="1">
          <mxGeometry width="50" height="50" relative="1" as="geometry">
            <mxPoint x="2020" y="220" as="sourcePoint" />
            <mxPoint x="2080" y="180" as="targetPoint" />
          </mxGeometry>
        </mxCell>
        <mxCell id="gYe92Rgtv7boX88liuPo-641" value="" style="endArrow=none;html=1;rounded=0;exitX=0.5;exitY=1;exitDx=0;exitDy=0;entryX=0.5;entryY=0;entryDx=0;entryDy=0;strokeColor=#788AA3;fontColor=#46495D;" parent="1" source="gYe92Rgtv7boX88liuPo-627" target="gYe92Rgtv7boX88liuPo-649" edge="1">
          <mxGeometry width="50" height="50" relative="1" as="geometry">
            <mxPoint x="1770" y="130" as="sourcePoint" />
            <mxPoint x="1582.5" y="129.9999999999999" as="targetPoint" />
          </mxGeometry>
        </mxCell>
        <mxCell id="gYe92Rgtv7boX88liuPo-642" value="" style="endArrow=none;html=1;rounded=1;sketch=0;fontColor=#46495D;strokeColor=#788AA3;fillColor=#B2C9AB;curved=0;exitX=0.5;exitY=1;exitDx=0;exitDy=0;entryX=0.5;entryY=0;entryDx=0;entryDy=0;" parent="1" source="gYe92Rgtv7boX88liuPo-626" target="gYe92Rgtv7boX88liuPo-643" edge="1">
          <mxGeometry width="50" height="50" relative="1" as="geometry">
            <mxPoint x="1650" y="400" as="sourcePoint" />
            <mxPoint x="1140" y="270" as="targetPoint" />
          </mxGeometry>
        </mxCell>
        <mxCell id="gYe92Rgtv7boX88liuPo-643" value="RL Offline Model-Based" style="swimlane;rounded=0;labelBackgroundColor=none;sketch=0;fontColor=#46495D;strokeColor=#788AA3;fillColor=#B2C9AB;gradientColor=none;" parent="1" vertex="1">
          <mxGeometry x="850" y="210" width="205" height="300" as="geometry" />
        </mxCell>
        <mxCell id="gYe92Rgtv7boX88liuPo-644" value="RL Offline Model-Free" style="swimlane;rounded=0;labelBackgroundColor=none;sketch=0;fontColor=#46495D;strokeColor=#788AA3;fillColor=#B2C9AB;gradientColor=none;" parent="1" vertex="1">
          <mxGeometry x="1080" y="210" width="190" height="300" as="geometry" />
        </mxCell>
        <mxCell id="gYe92Rgtv7boX88liuPo-645" value="RL Offline Hybrid" style="swimlane;rounded=0;labelBackgroundColor=none;sketch=0;fontColor=#46495D;strokeColor=#788AA3;fillColor=#B2C9AB;gradientColor=none;" parent="1" vertex="1">
          <mxGeometry x="1300" y="210" width="190" height="300" as="geometry" />
        </mxCell>
        <mxCell id="gYe92Rgtv7boX88liuPo-646" value="RL Offline Comparison" style="swimlane;rounded=0;labelBackgroundColor=none;sketch=0;fontColor=#46495D;strokeColor=#788AA3;fillColor=#B2C9AB;gradientColor=none;" parent="1" vertex="1">
          <mxGeometry x="1510" y="210" width="208" height="300" as="geometry" />
        </mxCell>
        <mxCell id="gYe92Rgtv7boX88liuPo-647" value="" style="endArrow=none;html=1;rounded=1;sketch=0;fontColor=#46495D;strokeColor=#788AA3;fillColor=#B2C9AB;curved=0;entryX=0.5;entryY=1;entryDx=0;entryDy=0;exitX=0.5;exitY=0;exitDx=0;exitDy=0;" parent="1" source="gYe92Rgtv7boX88liuPo-644" target="gYe92Rgtv7boX88liuPo-629" edge="1">
          <mxGeometry width="50" height="50" relative="1" as="geometry">
            <mxPoint x="1240" y="220" as="sourcePoint" />
            <mxPoint x="1290" y="170" as="targetPoint" />
          </mxGeometry>
        </mxCell>
        <mxCell id="gYe92Rgtv7boX88liuPo-648" value="" style="endArrow=none;html=1;rounded=1;sketch=0;fontColor=#46495D;strokeColor=#788AA3;fillColor=#B2C9AB;curved=0;entryX=0.5;entryY=1;entryDx=0;entryDy=0;exitX=0.5;exitY=0;exitDx=0;exitDy=0;" parent="1" source="gYe92Rgtv7boX88liuPo-645" target="gYe92Rgtv7boX88liuPo-649" edge="1">
          <mxGeometry width="50" height="50" relative="1" as="geometry">
            <mxPoint x="1530" y="340" as="sourcePoint" />
            <mxPoint x="1582.5" y="159.9999999999999" as="targetPoint" />
          </mxGeometry>
        </mxCell>
        <mxCell id="gYe92Rgtv7boX88liuPo-649" value="&lt;span&gt;Hybrid&lt;/span&gt;" style="rounded=1;whiteSpace=wrap;html=1;labelBackgroundColor=none;sketch=0;fontColor=#46495D;strokeColor=#788AA3;fillColor=#B2C9AB;gradientColor=none;" parent="1" vertex="1">
          <mxGeometry x="1410" y="135" width="60" height="30" as="geometry" />
        </mxCell>
        <mxCell id="gYe92Rgtv7boX88liuPo-650" value="" style="endArrow=none;html=1;rounded=1;sketch=0;fontColor=#46495D;strokeColor=#788AA3;fillColor=#B2C9AB;curved=0;entryX=0.5;entryY=1;entryDx=0;entryDy=0;exitX=0.5;exitY=0;exitDx=0;exitDy=0;" parent="1" source="gYe92Rgtv7boX88liuPo-646" target="gYe92Rgtv7boX88liuPo-630" edge="1">
          <mxGeometry width="50" height="50" relative="1" as="geometry">
            <mxPoint x="1540" y="330" as="sourcePoint" />
            <mxPoint x="1590" y="280" as="targetPoint" />
          </mxGeometry>
        </mxCell>
        <mxCell id="gYe92Rgtv7boX88liuPo-651" value="RL Online Model-Based" style="swimlane;rounded=0;labelBackgroundColor=none;sketch=0;fontColor=#46495D;strokeColor=#788AA3;fillColor=#B2C9AB;gradientColor=none;startSize=23;" parent="1" vertex="1">
          <mxGeometry x="1750" y="210" width="210" height="310" as="geometry" />
        </mxCell>
        <mxCell id="gYe92Rgtv7boX88liuPo-652" value="RL Online Model-Free" style="swimlane;rounded=0;labelBackgroundColor=none;sketch=0;fontColor=#46495D;strokeColor=#788AA3;fillColor=#B2C9AB;gradientColor=none;" parent="1" vertex="1">
          <mxGeometry x="2000" y="210" width="210" height="310" as="geometry" />
        </mxCell>
        <mxCell id="gYe92Rgtv7boX88liuPo-653" value="RL Online Hybrid" style="swimlane;rounded=0;labelBackgroundColor=none;sketch=0;fontColor=#46495D;strokeColor=#788AA3;fillColor=#B2C9AB;gradientColor=none;startSize=23;" parent="1" vertex="1">
          <mxGeometry x="2240" y="210" width="190" height="310" as="geometry" />
        </mxCell>
        <mxCell id="gYe92Rgtv7boX88liuPo-654" value="RL Online Comparison" style="swimlane;rounded=0;labelBackgroundColor=none;sketch=0;fontColor=#46495D;strokeColor=#788AA3;fillColor=#B2C9AB;gradientColor=none;" parent="1" vertex="1">
          <mxGeometry x="2460" y="210" width="208" height="310" as="geometry" />
        </mxCell>
        <mxCell id="gYe92Rgtv7boX88liuPo-655" value="" style="endArrow=none;html=1;rounded=1;sketch=0;fontColor=#46495D;strokeColor=#788AA3;fillColor=#B2C9AB;curved=0;exitX=0.5;exitY=1;exitDx=0;exitDy=0;entryX=0.5;entryY=0;entryDx=0;entryDy=0;" parent="1" source="gYe92Rgtv7boX88liuPo-633" target="gYe92Rgtv7boX88liuPo-651" edge="1">
          <mxGeometry width="50" height="50" relative="1" as="geometry">
            <mxPoint x="2180" y="180" as="sourcePoint" />
            <mxPoint x="2230" y="130" as="targetPoint" />
          </mxGeometry>
        </mxCell>
        <mxCell id="gYe92Rgtv7boX88liuPo-656" value="" style="endArrow=none;html=1;rounded=1;sketch=0;fontColor=#46495D;strokeColor=#788AA3;fillColor=#B2C9AB;curved=0;entryX=0.5;entryY=1;entryDx=0;entryDy=0;exitX=0.5;exitY=0;exitDx=0;exitDy=0;" parent="1" source="gYe92Rgtv7boX88liuPo-652" target="gYe92Rgtv7boX88liuPo-634" edge="1">
          <mxGeometry width="50" height="50" relative="1" as="geometry">
            <mxPoint x="2180" y="180" as="sourcePoint" />
            <mxPoint x="2230" y="130" as="targetPoint" />
          </mxGeometry>
        </mxCell>
        <mxCell id="gYe92Rgtv7boX88liuPo-657" value="" style="endArrow=none;html=1;rounded=1;sketch=0;fontColor=#46495D;strokeColor=#788AA3;fillColor=#B2C9AB;curved=0;entryX=0.5;entryY=1;entryDx=0;entryDy=0;exitX=0.5;exitY=0;exitDx=0;exitDy=0;" parent="1" source="gYe92Rgtv7boX88liuPo-653" target="gYe92Rgtv7boX88liuPo-635" edge="1">
          <mxGeometry width="50" height="50" relative="1" as="geometry">
            <mxPoint x="2180" y="180" as="sourcePoint" />
            <mxPoint x="2230" y="130" as="targetPoint" />
          </mxGeometry>
        </mxCell>
        <mxCell id="gYe92Rgtv7boX88liuPo-658" value="" style="endArrow=none;html=1;rounded=1;sketch=0;fontColor=#46495D;strokeColor=#788AA3;fillColor=#B2C9AB;curved=0;entryX=0.5;entryY=1;entryDx=0;entryDy=0;exitX=0.5;exitY=0;exitDx=0;exitDy=0;" parent="1" source="gYe92Rgtv7boX88liuPo-654" target="gYe92Rgtv7boX88liuPo-636" edge="1">
          <mxGeometry width="50" height="50" relative="1" as="geometry">
            <mxPoint x="2180" y="180" as="sourcePoint" />
            <mxPoint x="2230" y="130" as="targetPoint" />
          </mxGeometry>
        </mxCell>
        <mxCell id="QpMWJNPEq7iUGMKIBiDv-12" style="edgeStyle=orthogonalEdgeStyle;curved=0;rounded=1;sketch=0;orthogonalLoop=1;jettySize=auto;html=1;exitX=0.5;exitY=1;exitDx=0;exitDy=0;fontSize=16;fontColor=#46495D;strokeColor=#788AA3;fillColor=#B2C9AB;" edge="1" parent="1" source="gYe92Rgtv7boX88liuPo-443" target="gYe92Rgtv7boX88liuPo-443">
          <mxGeometry relative="1" as="geometry" />
        </mxCell>
      </root>
    </mxGraphModel>
  </diagram>
</mxfile>
